<svg width="16" height="21" viewBox="0 0 16 21" fill="none" xmlns="http://www.w3.org/2000/svg">
<path d="M5.973 16H7V11H9V16H10.027C10.159 14.798 10.772 13.806 11.767 12.723C11.88 12.601 12.599 11.856 12.684 11.75C13.3903 10.8676 13.833 9.80369 13.9611 8.68075C14.0892 7.55781 13.8976 6.42151 13.4082 5.40271C12.9189 4.38392 12.1517 3.52406 11.1951 2.92215C10.2385 2.32025 9.13131 2.00078 8.00108 2.00054C6.87085 2.0003 5.76354 2.31929 4.80666 2.92079C3.84978 3.52228 3.08225 4.38182 2.59246 5.4004C2.10267 6.41899 1.91054 7.55521 2.03819 8.6782C2.16584 9.8012 2.60809 10.8653 3.314 11.748C3.4 11.855 4.121 12.601 4.232 12.722C5.228 13.806 5.841 14.798 5.973 16V16ZM6 18V19H10V18H6ZM1.754 13C0.812189 11.8233 0.221946 10.4044 0.0512623 8.90694C-0.119421 7.40944 0.136398 5.89418 0.789252 4.53572C1.44211 3.17725 2.46543 2.03085 3.74135 1.22856C5.01728 0.426269 6.49388 0.00073532 8.00108 0.000976665C9.50828 0.00121801 10.9847 0.427224 12.2604 1.22992C13.5361 2.03262 14.559 3.17935 15.2115 4.53803C15.8639 5.8967 16.1192 7.41204 15.948 8.90949C15.7769 10.4069 15.1862 11.8256 14.244 13.002C13.624 13.774 12 15 12 16.5V19C12 19.5304 11.7893 20.0391 11.4142 20.4142C11.0391 20.7893 10.5304 21 10 21H6C5.46957 21 4.96086 20.7893 4.58578 20.4142C4.21071 20.0391 4 19.5304 4 19V16.5C4 15 2.375 13.774 1.754 13Z" fill="#042330"/>
</svg>
